<svg width="57" height="68" viewBox="0 0 57 68" fill="none" xmlns="http://www.w3.org/2000/svg">
<path fill-rule="evenodd" clip-rule="evenodd" d="M28.5 0.00338222C23.9489 -0.00360114 19.5485 1.61752 16.1099 4.56798C12.6713 7.51844 10.4262 11.5994 9.78827 16.0588C9.15037 20.5182 10.1627 25.0555 12.6387 28.8345C15.1146 32.6136 18.8874 35.3797 23.2617 36.623C17.0491 37.3689 11.7157 39.5459 7.69958 43.4632C2.5869 48.4488 0 55.8702 0 65.5525C0 66.2016 0.260565 66.8242 0.724374 67.2832C1.18818 67.7421 1.81724 68 2.47317 68C3.12909 68 3.75815 67.7421 4.22196 67.2832C4.68577 66.8242 4.94634 66.2016 4.94634 65.5525C4.94634 56.6933 7.30238 50.7199 11.1691 46.9471C15.0461 43.1675 20.831 41.2122 28.5 41.2122C36.169 41.2122 41.9539 43.1675 45.8308 46.9471C49.6976 50.7199 52.0537 56.6899 52.0537 65.5525C52.0537 66.2016 52.3142 66.8242 52.778 67.2832C53.2418 67.7421 53.8709 68 54.5268 68C55.1828 68 55.8118 67.7421 56.2756 67.2832C56.7394 66.8242 57 66.2016 57 65.5525C57 55.8702 54.4131 48.4488 49.3004 43.4632C45.2843 39.5459 39.9543 37.3689 33.7383 36.6197C38.1126 35.3763 41.8854 32.6102 44.3613 28.8312C46.8373 25.0522 47.8496 20.5149 47.2117 16.0555C46.5738 11.5961 44.3287 7.51508 40.8901 4.56462C37.4515 1.61416 33.0511 -0.0069609 28.5 2.24681e-05V0.00338222ZM14.5742 18.676C14.5742 15.0211 16.0414 11.5158 18.653 8.93134C21.2646 6.34689 24.8067 4.89496 28.5 4.89496C32.1933 4.89496 35.7354 6.34689 38.347 8.93134C40.9586 11.5158 42.4258 15.0211 42.4258 18.676C42.4258 22.331 40.9586 25.8363 38.347 28.4207C35.7354 31.0052 32.1933 32.4571 28.5 32.4571C24.8067 32.4571 21.2646 31.0052 18.653 28.4207C16.0414 25.8363 14.5742 22.331 14.5742 18.676V18.676Z" fill="#051528"/>
</svg>
